<?xml version="1.0" encoding="utf-8"?>
<!-- Generator: Adobe Illustrator 17.0.0, SVG Export Plug-In . SVG Version: 6.00 Build 0)  -->
<!DOCTYPE svg PUBLIC "-//W3C//DTD SVG 1.1//EN" "http://www.w3.org/Graphics/SVG/1.1/DTD/svg11.dtd">
<svg version="1.1" id="Layer_1" xmlns="http://www.w3.org/2000/svg" xmlns:xlink="http://www.w3.org/1999/xlink" x="0px" y="0px"
	 width="596.992px" height="288.498px" viewBox="236.516 93.122 596.992 288.498"
	 enable-background="new 236.516 93.122 596.992 288.498" xml:space="preserve">
<text transform="matrix(1 0 0 1 236.5156 331.6211)" fill="#39F5C0" font-family="'Baffled-Regular'" font-size="250">PLUFF</text>
<text transform="matrix(1 0 0 1 784.0085 331.6211)" fill="#33E1B0" font-family="'Baffled-Regular'" font-size="250">.</text>
<g>
	<g>
		<defs>
			<path id="SVGID_1_" d="M337.766,146.371v26.5c0,28-14,42-42,42h-19v116.75h-26V328V128.871v-1h-13.5v-23.25h13.75h12.25h32.5
				C323.766,104.621,337.766,118.371,337.766,146.371z M311.766,145.121c0-11.75-5.5-16.75-17-16.75h-18v7.5v55.5h18
				c11.5,0,17-5.75,17-17.25V145.121z M436.764,307.621v24h-68.5v-203.25h-12.75v-23.5h25.75h12.75v202.75H436.764z
				 M560.013,108.371v184.75c0,28.25-13.75,42.25-41.75,42.25h-8.25c-28,0-42-14-42-42.25v-161.5h-19.5v-23.25h25.75h19.25v186
				c0,11.75,6,17.25,17.5,17.25h6.25c11.5,0,17-5.5,17-17.25v-186H560.013z M622.509,150.871v116.25h42.25v23.5h-42.25v41h-26v-41
				h-14.25v-23.5h14.5v-112c0-34,16.25-50,50.25-50.25l19.25-0.25v24.25h-21.25C631.009,128.871,622.509,137.121,622.509,150.871z
				 M723.759,150.871v116.25h42.25v23.5h-42.25v41h-26v-41h-14.25v-23.5h14.5v-112c0-34,16.25-50,50.25-50.25l19.25-0.25v24.25
				h-21.25C732.259,128.871,723.759,137.121,723.759,150.871z"/>
		</defs>
		<clipPath id="SVGID_2_">
			<use xlink:href="#SVGID_1_"  overflow="visible"/>
		</clipPath>
		<polygon clip-path="url(#SVGID_2_)" fill="#33E1B0" points="767.509,104.621 250.766,331.621 771,365.5 		"/>
	</g>
</g>
</svg>
